<svg width="135" height="135" viewBox="0 0 135 135" fill="none" xmlns="http://www.w3.org/2000/svg">
<rect width="135" height="135" fill="#7C7C7C"/>
<path d="M66 129C68.0126 103.643 102.73 86.5844 113.296 80.5909C123.862 74.5974 126.377 63.9935 121.849 58" stroke="#1D1D1D" stroke-width="3" stroke-linecap="round"/>
<path d="M56.5 19C53 19 41 7.50002 39.5 8.50002C42.1667 13.769 48.5 24.2263 52.5 23.9035C55.6792 20.8649 57.7514 19 56.5 19Z" fill="#484848"/>
<path d="M39.5 8.50002C38 9.50002 37.5 37 37.5 37C37.5 37 46.7872 29.3639 52.5 23.9035C48.5 24.2263 42.1667 13.769 39.5 8.50002Z" fill="#8B00AE"/>
<path d="M39.5 8.50002C38 9.50002 37.5 37 37.5 37C37.5 37 46.7872 29.3639 52.5 23.9035M39.5 8.50002C41 7.50002 53 19 56.5 19C57.7514 19 55.6792 20.8649 52.5 23.9035M39.5 8.50002C42.1667 13.769 48.5 24.2263 52.5 23.9035" stroke="#1D1D1D"/>
<path d="M77.3698 18.5616C80.8698 18.5616 92.8698 7.06163 94.3698 8.06163C91.7031 13.3306 85.3698 23.788 81.3698 23.4651C78.1906 20.4265 76.1184 18.5616 77.3698 18.5616Z" fill="#484848"/>
<path d="M94.3698 8.06163C95.8698 9.06163 96.3698 36.5616 96.3698 36.5616C96.3698 36.5616 87.0825 28.9255 81.3698 23.4651C85.3698 23.788 91.7031 13.3306 94.3698 8.06163Z" fill="#8B00AE"/>
<path d="M94.3698 8.06163C95.8698 9.06163 96.3698 36.5616 96.3698 36.5616C96.3698 36.5616 87.0825 28.9255 81.3698 23.4651M94.3698 8.06163C92.8698 7.06163 80.8698 18.5616 77.3698 18.5616C76.1184 18.5616 78.1906 20.4265 81.3698 23.4651M94.3698 8.06163C91.7031 13.3306 85.3698 23.788 81.3698 23.4651" stroke="#1D1D1D"/>
<circle cx="67" cy="49" r="32" fill="#D9D9D9"/>
<path d="M25 109.5C25 95.4167 36.4167 84 50.5 84H84.5C98.5833 84 110 95.4167 110 109.5V135H25V109.5Z" fill="#D9D9D9"/>
<path d="M56 60C59.5 63.5 65 65.5 67 61C67.5 59.5 67.5 60 68 61C70 65.5 75 63.5 78.5 60" stroke="#1D1D1D"/>
<path d="M68.3874 54.2923C68.014 55.0108 66.986 55.0108 66.6126 54.2923L64.3621 49.9611C64.0162 49.2954 64.4992 48.5 65.2494 48.5H69.7506C70.5008 48.5 70.9838 49.2954 70.6379 49.9611L68.3874 54.2923Z" fill="black"/>
<path d="M62 39.5228C57 37.0228 55.5 38.0228 53 39.5228" stroke="#1D1D1D"/>
<path d="M73 39.5228C78 37.0228 79.5 38.0228 82 39.5228" stroke="#1D1D1D"/>
</svg>
